<svg aria-hidden="true" style="width:0;height:0;position:absolute;overflow:hidden" xmlns="http://www.w3.org/2000/svg"><defs><symbol id="icon-coat-of-arms-Ukraine" viewBox="0 0 20 32"><path fill="#fff" style="fill:var(--color1,#fff)" d="M9.005 30.888a8.64 8.64 0 0 1-3.414-5.351H0V2.42c2.991 1.443 5.153 4.599 5.388 7.876l.846 6.493-.407-.045c-.893 0-1.676.812-1.676 1.608 0 .752.595 1.383 1.378 1.548l1.018.226c1.676-3.051 2.631-6.042 2.631-8.973 0-2.645-.36-5.291-.423-7.996 0-1.202.486-2.3 1.253-3.156.783.857 1.253 1.954 1.253 3.156 0 2.705-.423 5.351-.423 7.996 0 2.931.955 5.922 2.631 8.973l1.018-.226c.783-.165 1.378-.812 1.378-1.548 0-.812-.783-1.608-1.676-1.608l-.423.06.846-6.493c.423-3.277 2.396-6.448 5.388-7.876v23.117h-5.576c-.423 2.179-1.613 4.148-3.414 5.351-.423.286-.783.631-1.018 1.097-.219-.466-.579-.812-.987-1.112zM2.647 17.556c.235-.857.893-1.608 1.738-2.074l-.658-5.351a8.288 8.288 0 0 0-2.036-4.374v11.784h.955v.015zm2.819 6.373c0-.812.125-1.548.298-2.3l-.783-.18c-1.143-.346-2.036-1.203-2.334-2.3h-.955v4.78h3.774zm3.712 0c0-.977-.783-1.834-1.801-1.954-.172.631-.298 1.263-.298 1.954h2.099zm0 1.623H7.314c.298 1.263.955 2.42 1.864 3.397v-3.397zm2.631-5.005c-.72-1.262-1.378-2.585-1.801-3.968-.423 1.383-1.081 2.706-1.801 3.968.72.165 1.316.631 1.801 1.157.486-.526 1.081-.992 1.801-1.157zm1.143 3.382c0-.691-.125-1.323-.297-1.954-1.018.12-1.801.977-1.801 1.954h2.099zm-.235 1.623h-1.864v3.397c.908-.992 1.566-2.134 1.864-3.397zm5.623-1.623v-4.78h-.955c-.298 1.097-1.206 1.954-2.334 2.3l-.783.18c.172.752.298 1.488.298 2.3h3.774zm0-6.373V5.757c-1.081 1.202-1.864 2.706-2.036 4.374l-.658 5.351c.846.466 1.504 1.203 1.739 2.074h.955z"/></symbol><symbol id="icon-arrow-down" viewBox="0 0 32 32"><path fill="#4f2ee8" style="fill:var(--color2,#4f2ee8)" d="M15.053 17.867a1.334 1.334 0 0 0 1.894 0l6.107-6.12a1.334 1.334 0 1 1 1.894 1.88l-6.12 6.12a4.001 4.001 0 0 1-5.654 0l-6.12-6.12a1.337 1.337 0 0 1 .434-2.172 1.331 1.331 0 0 1 1.46.292l6.107 6.12z"/></symbol><symbol id="icon-drop-down" viewBox="0 0 28 32"><path fill="#fff" style="fill:var(--color1,#fff)" d="M5.898 12h16.513l-7.423 8.391c-.221.25-.521.39-.834.39s-.613-.14-.834-.39L5.898 12z"/></symbol><symbol id="icon-arrow-up" viewBox="0 0 32 32"><path fill="#fff" style="fill:var(--color1,#fff)" d="M4.5 19.6 15.7 8.367c.133-.133.278-.228.433-.283s.322-.084.5-.084.345.028.5.084.3.149.433.283L28.799 19.6c.311.311.467.7.467 1.167s-.167.867-.5 1.2c-.333.333-.722.5-1.167.5s-.833-.167-1.167-.5l-9.8-9.8-9.8 9.8c-.311.311-.694.467-1.149.467s-.851-.167-1.184-.5-.5-.722-.5-1.167c0-.444.167-.833.5-1.167z"/></symbol><symbol id="icon-arrow-right" viewBox="0 0 32 32"><path fill="none" stroke="#eac645" style="stroke:var(--color3,#eac645)" stroke-linejoin="round" stroke-linecap="round" stroke-width="3.2" d="M5.333 16h21.333m.001 0-8-8m8 8-8 8"/></symbol><symbol id="icon-burger-menu" viewBox="0 0 32 32"><path stroke-linejoin="round" stroke-linecap="round" stroke-width="2.286" d="M22.667 13.333H4M28 8H4M28 18.667H4M22.667 24H4"/></symbol><symbol id="icon-dump" viewBox="0 0 32 32"><path fill="#4f2ee8" style="fill:var(--color2,#4f2ee8)" d="M32 16c0 8.837-7.163 16-16 16S0 24.837 0 16 7.163 0 16 0s16 7.163 16 16z"/><path fill="none" stroke="#fff" style="stroke:var(--color1,#fff)" stroke-linejoin="round" stroke-linecap="round" stroke-width="1.684" d="M13.684 9.053h4.632m-9.263 2.315h13.895m-1.544 0-.541 8.12c-.081 1.218-.122 1.827-.385 2.289a2.322 2.322 0 0 1-1.002.938c-.478.232-1.089.232-2.31.232h-2.33c-1.221 0-1.832 0-2.31-.232a2.31 2.31 0 0 1-1.002-.938c-.263-.462-.304-1.071-.385-2.289l-.541-8.12m3.858 3.474v3.86m3.088-3.86v3.86"/></symbol><symbol id="icon-lock" viewBox="0 0 24 24"><path d="M5 12h14c.276 0 .525.111.707.293S20 12.724 20 13v7c0 .276-.111.525-.293.707S19.276 21 19 21H5c-.276 0-.525-.111-.707-.293S4 20.276 4 20v-7c0-.276.111-.525.293-.707S4.724 12 5 12zm13-2V7c0-1.657-.673-3.158-1.757-4.243S13.657 1 12 1s-3.158.673-4.243 1.757S6 5.343 6 7v3H5a2.997 2.997 0 0 0-3 3v7a2.997 2.997 0 0 0 3 3h14a2.997 2.997 0 0 0 3-3v-7a2.997 2.997 0 0 0-3-3zM8 10V7c0-1.105.447-2.103 1.172-2.828S10.895 3 12 3s2.103.447 2.828 1.172S16 5.895 16 7v3z"/></symbol><symbol id="icon-mail" viewBox="0 0 43 32"><path d="M42.313 3.447C41.53 1.418 39.597.004 37.333 0h-32A5.337 5.337 0 0 0 .331 3.516l-.012.037a4.86 4.86 0 0 0-.32 1.753v.029-.001 21.333a5.334 5.334 0 0 0 3.298 4.927l.035.013A5.141 5.141 0 0 0 5.323 32h32.038c.676 0 1.319-.137 1.904-.385l-.032.012a5.26 5.26 0 0 0 2.753-2.341L42 29.26c.42-.744.667-1.634.667-2.582v-.012.001V5.334a5.22 5.22 0 0 0-.366-1.922l.012.035zM3.553 5.333a1.787 1.787 0 0 1 1.78-1.78h32a1.787 1.787 0 0 1 1.78 1.78v.34L24.94 16.34 22 18.613l-.667.5-.667-.52-2.973-2.22L3.553 5.74zm0 21.334v-16.48l11.187 8.407-11.147 8.373a1.318 1.318 0 0 1-.04-.299v-.001zm4 1.78 10.153-7.627 2.56 1.933c.292.225.664.36 1.067.36s.774-.135 1.071-.363l-.004.003 2.54-1.92 10.08 7.613zm31.56-1.78c0 .133-.02.262-.056.383l.002-.009-11.167-8.447 11.22-8.48z"/></symbol><symbol id="icon-user" viewBox="0 0 32 32"><path fill="#f6f6f6" style="fill:var(--color4,#f6f6f6)" d="M32 16c0 8.837-7.163 16-16 16S0 24.837 0 16 7.163 0 16 0s16 7.163 16 16z"/><path fill="#4f2ee8" style="fill:var(--color2,#4f2ee8)" d="M10.523 22.847a5.477 5.477 0 1 1 10.954 0H10.522zM16 16.685c-2.27 0-4.108-1.838-4.108-4.108S13.73 8.469 16 8.469c2.27 0 4.108 1.838 4.108 4.108S18.27 16.685 16 16.685z"/></symbol><symbol id="icon-x-close" viewBox="0 0 32 32"><path d="M6.654 5.32a1.333 1.333 0 0 0-.93 2.288l8.391 8.391-8.391 8.391a1.333 1.333 0 1 0 1.884 1.885l8.391-8.391 8.391 8.391a1.333 1.333 0 1 0 1.885-1.884L17.884 16l8.391-8.391a1.333 1.333 0 0 0-.929-2.289l-.041.001h.002c-.36.011-.683.163-.916.403L16 14.115 7.609 5.724a1.33 1.33 0 0 0-.956-.404z"/></symbol><symbol id="icon-unlock" viewBox="0 0 24 24"><path d="M5 12h14c.276 0 .525.111.707.293S20 12.724 20 13v7c0 .276-.111.525-.293.707S19.276 21 19 21H5c-.276 0-.525-.111-.707-.293S4 20.276 4 20v-7c0-.276.111-.525.293-.707S4.724 12 5 12zm3-2V7a3.988 3.988 0 0 1 1.169-2.831 3.983 3.983 0 0 1 2.821-1.174 3.985 3.985 0 0 1 2.652 1 4.052 4.052 0 0 1 1.28 2.209 1 1 0 1 0 1.958-.408 6.051 6.051 0 0 0-1.912-3.299A5.963 5.963 0 0 0 11.995.995c-1.657.002-3.157.676-4.241 1.762S5.998 5.344 6 7v3H5a2.997 2.997 0 0 0-3 3v7a2.997 2.997 0 0 0 3 3h14a2.997 2.997 0 0 0 3-3v-7a2.997 2.997 0 0 0-3-3z"/></symbol><symbol id="icon-Icon-close-modal" viewBox="0 0 32 32"><path stroke-linejoin="round" stroke-linecap="round" stroke-width="5" d="M28 4 4 28M4 4l24 24"/></symbol></defs></svg>